<?xml version="1.0" encoding="utf-8"?>
<!-- Generator: Adobe Illustrator 15.0.0, SVG Export Plug-In . SVG Version: 6.00 Build 0)  -->
<!DOCTYPE svg PUBLIC "-//W3C//DTD SVG 1.1//EN" "http://www.w3.org/Graphics/SVG/1.1/DTD/svg11.dtd">
<svg version="1.1" xmlns="http://www.w3.org/2000/svg" xmlns:xlink="http://www.w3.org/1999/xlink" x="0px" y="0px" width="800px"
	 height="300px" viewBox="0 0 800 300" enable-background="new 0 0 800 300" xml:space="preserve">
<g id="Calque_1">
	<g>
		<g>
			<g>
				<path fill="#CCCBCB" d="M423.398,256.71L423.398,256.71l-3.71,2.66h30.245c85.461-57.259,146.968-97.257,146.968-97.257h-34.063
					L423.398,256.71z"/>
				<path fill="#CCCBCB" d="M631.811,185.968c-11.667-44.366-90.143-42.187-129.255-26.645
					c-31.88,12.662-35.348,37.847-44.816,53.69l-63.059,46.356h22.218l136.021-97.257h-25.942l-55.802,41.022
					c6.929-19.129,14.6-34.201,41.066-43.45c29.427-10.288,102.644-15.392,114.567,27.825
					C629.162,188.57,632.054,186.884,631.811,185.968z"/>
			</g>
			<g>
				<path fill="#023466" d="M635.754,187.712c-17.699,17.243-85.833-19.037-165.754,37.381c0,0-49.584,33.434-50.392,34.277h74.245
					c23.739-23.591,76.106-17.526,119.256,3.068c79.381,37.889,106.636,0.836,92.152-21.526
					c14.282,22.061-20.428,56.403-77.743,17.003c-27.107-18.644-100.505-49.51-138.575-21.877
					c35.795-30.157,79.188-17.905,103.021-21.009c85.222-11.104,62.766-74.77-11.127-77.33
					c-17.287-0.602-53.091,2.528-70.854,16.512C605.253,119.301,643.223,180.432,635.754,187.712z"/>
			</g>
			<g>
				<path fill="#023466" d="M208.333,35.896c2.851-0.593,4.952-6.131,7.221-4.532c2.3,1.621-3.275,10.63,3.845,3.989
					c0.128,0.038,0.224,0.098,0.361,0.125c0.061-0.108,0.075-0.296,0.066-0.544c1.284-1.095,1.88-1.036,2.061-0.537
					c0.426,2.981-3.345,3.145-3.519,5.904c-0.13,2.07,5.044-1.252,5.331-1.602c3.34,2.706,2.189,4.392-1.339,2.97
					c-2.075-0.783,0.444,6.698,4.182,4.049c0.442,1.393,1.385,0.829,2.09,0.011c0.051,0.078,0.162,0.692,0.234,0.879
					c0.179,0.505-0.324,4.554-0.38,4.914l0.015-0.011c0.008,0.104,0.008,0.246,0.025,0.333c0.56,1.803,2.822-2.336,2.842-2.642
					c-0.292,4.593-3.603,10.571-1.87,15.104c0.526,1.44,1.62-6.455,2.957-6.455s2.93,7.651,1.819,12.056
					c-6.34-2.658-9.437,0.491-8.718-9.275c-0.164,1.723,0.401,5.19,0.531,4.852c1.756-4.579-0.622-11.02-3.131-14.757
					c1.584,0.134,2.417-0.378,2.5-1.535c-2.981,1.305-5.278-2.049-7.435-3.462c-0.469-0.378-8.317,0.835-9.043,0.697
					c-1.234-2.47,0.273-5.762-1.66-7.488c-0.549-0.491-4.219-2.157-5.13,0.002c-0.002-0.041-0.876,3.76,0.633,3.76
					c1.207,0,5.697,0.68,3.026,2.213c-3.771,2.164-6.151-6.765-8.459-4.291c1.04,0.219,0.718,0.426,0.269,0.797
					c-1.848,1.605,1.141,1.228,1.91,2.763c0.701,1.614-1.859,2.786-2.311,1.831c0.009,0.018-3.07-3.802-2.376-3.586
					c-0.475,0.249-0.206,0.617-0.68,0.866c-1.534-1.365-5.443,0.3-6.77,2.027c1.68-2.676,14.194-11.465,18.519-9.567
					C205.931,35.73,206.955,36.183,208.333,35.896z"/>
				<path fill="#023466" d="M227.403,44.983c1.584,0.167,2.61-1.891,1.001-2.218c0,0-0.667-0.199-1.274,0.093
					C226.523,43.15,225.592,44.784,227.403,44.983z"/>
				<path fill="#023466" d="M199.183,28.468c3.975,0.724,4.673,4.317,8.936,3.461c0.394-0.126,0.422-0.726,0.392-0.942
					C208.049,27.676,191.432,27.024,199.183,28.468"/>
				<path fill="#023466" d="M231.925,70.722l-1.464,0.182c-0.782,0.802-2.041,2.134-1.345,2.666
					c0.725,0.562,1.713-0.309,3.015-0.854C232.814,71.814,232.529,70.722,231.925,70.722z"/>
				<path fill="#023466" d="M231.563,73.931c-0.679,0.818-1.29,2.184-0.628,2.501c1.917,0.933,5.412-2.822,5.796-4.289
					c-0.274-0.074-2.074-0.322-2.074-0.322C232.899,72.124,232.583,72.709,231.563,73.931z"/>
				<path fill="#023466" d="M191.901,24.301c1.713-0.172,3.26-0.837,4.9-1.136c-4.095,0.445-7.093-2.24-11.439-1.869
					C187.393,22.919,189.363,24.501,191.901,24.301"/>
				<path fill="#023466" d="M159.417,73.788c0.002,0.006,0,0.011,0,0.011l0,0C159.419,73.794,159.419,73.788,159.417,73.788z"/>
				<path fill="#023466" d="M153.061,95.387c1.134-0.772,3.011-3.071,4.544-2.334c-1.41-3.358,0.771-7.574,1.978-10.447
					c0.524-1.218-0.517-2.445-0.795-3.532c-0.448-1.746-0.302-3.585,0.177-5.274c-1.721,1.618-4.944,7.189-4.787,9.838
					c0.103,1.732,0.528,2.821-0.636,4.148C152.184,89.333,152.859,93.305,153.061,95.387"/>
				<path fill="#023466" d="M162.481,103.089c-0.761-4.91-0.538-2.196-2.29-2.789c-2.408-0.842-0.244-4.938-0.227-6.49
					c-0.462-0.343-2.004-0.688-2.314-0.713c0.58,1.468-1.688,2.005-2.755,3.196c1.655,1.342,3.32,1.682,1.499,4.211
					c1.197,0.698,3.778,0.174,4.57,1.557c0.833,1.453-1.084,2.118,1.637,3.432C162.702,104.622,162.573,103.676,162.481,103.089"/>
				<path fill="#023466" d="M211.916,118.94c-0.858-1.223-1.837-0.748-2.972-0.099c-1.113,0.635-2.467,3.238-4.373,3.027
					c-1.057-0.117-2.15-0.62-3.131-0.983c-0.915-0.341-1.21-1.063-1.531-1.831c-0.151-0.081-0.277-0.176-0.51-0.199
					c-0.63,0.407-1.205,0.836-1.793,1.237c-1.103,0.559-3.041-0.133-3.451-0.728c-0.751-1.101,0.883-1.842-0.431-2.664
					c-0.376-0.23-1.604-0.34-2.043-0.008c-1.015,0.786,0.073,0.596-0.062,1.26c-0.22,1.004,0.247,1.903-1.613,2.408
					c0.301-0.863-0.222-2.87-1.407-2.882c-1.252,0.017-1.086,1.376-2.653,1.376c-0.497,0.006-0.931-0.585-1.563-0.598
					c-0.679,0.013-1.037,0.356-1.667,0.478c-1.464,0.309-2.119,0.171-3.546,0.017c0.58-2.729-1.876-1.358-2.603-2.887
					c1.551-0.835-0.003-1.199,0.274-2.246c0.17-0.635,1.556-1.306,1.109-2.033c-0.516-0.847-2.209,0.289-2.525,1.062
					c-0.429,1.049,0.732,1.722,0.269,2.585c-0.973,1.065-1.508,2.206-2.809,1.278c-1.101-0.792-1.802-2.712-1.393-3.138
					c2.043-1.98-0.591-2.16-1.943-2.331c0.467-1.203,0.596-2.957-0.863-3.21c-1.403-0.241-2.703,1.679-4.017,0.74
					c-0.948-0.68-0.542-2.281-1.883-3c-0.062-0.033-0.112-0.059-0.172-0.081c-0.068,0.553-0.213,1.08-0.615,1.416
					c-1.238,1.04-2.78,0.132-3.632-0.407c-1.01-0.641-1.693-1.816-2.49-2.901c-0.585-0.833-1.353-1.266-1.899-2.206
					c-0.818-1.424-1.107-4.737-1.912-5.633c-1.164-1.211-1.598-3.525-0.461-5.774c0.315-0.624,1.521-5.925,2.143-8.271
					c1.167-4.397,2.935-7.794,5.057-10.981l2.119-4.535c0.306-0.083,0.752,0.29,0.922,0.41c0.182,0.143,0.521,0.604,0.661,0.923
					c0.162,0.373,0.118,1.097,0.129,1.705c-0.107,0.099,1.276-0.721,2.362-0.779c0.362-0.02,1.521,0.049,2.097,0.555
					c0.912,0.8-0.104,2.483,0.842,3.22c2.321,1.832,3.051-3.094,1.844-4.372c-0.895-0.964-2.158-0.68-1.932-2.517
					c0.067-0.538,0.321-1.021,0.566-1.53c-1.39-0.653-4.655,2.579-4.285-0.263c0.511-3.791,2.102-8.002,3.864-11.005
					c0.91-1.556,1.902-2.082,2.85-2.501c2.053-0.931,3.253-1.793,5.31-4.639c1.245-1.706,2.863,0.367,3.61,1.01
					c2.364,2.012,5.102,2.385,8.129-1.686c0.022-0.021,0.033-0.033,0.047-0.049c-0.141,0.105-0.282,0.216-0.425,0.324
					c-3.939,3.017-4.345,0.911-6.525-3.105c-0.015-0.03,0.016-0.092,0.039-0.07c5.499,7.652,13.196-6.368,20.019-9.221
					c-1.058-0.384-2.093-0.987-3.022-1.579c-12.451-7.486-29.487-4.733-42.025,30.278c-0.21,0.597-0.42,0.294-0.333-0.315
					c1.83-12.658,7.635-20.845,14.136-27.398c0.524-0.48,1.055-1.385,1.137-1.623c0.019-0.098,0.028-0.19,0.051-0.283
					c0.103-0.675-0.155-1.242-0.979-1.049c-0.222,0.053-0.44,0.1-0.659,0.172c-1.312,0.478-2.697,0.961-3.664,1.836
					c-1.081,1.103-2.103,2.207-2.859,3.243c-0.125,0.174-3.671,6.23-4.313,7.465c-0.288,0.543-1.873,2.033-1.977,1.541
					c-0.037-0.126,2.528-3.316,2.467-4.349c-0.024,0,0.043-0.463-0.293-0.309c-0.301,0.137-1.538,2.575-1.526,2.555
					c-0.338,0.546-1.173,2.21-2.164,4.432c-0.316,0.847-0.625,1.701-1.003,2.508c-0.303,0.633-1.954,4.871-3.086,6.066
					c-0.345,0.362-2.55,1.548-4.19,2.873c-0.167,0.134-0.275,0.505-0.337,0.773c0.002,0.424,0.182,0.774,0.682,0.962
					c0.484-0.051,1.126-0.15,1.608-0.224c0.387-0.064,0.697,0.293,0.67,0.66c-0.035,0.573-0.175,1.131-0.32,1.69
					c-0.003,0.271-0.006,0.545-0.034,0.878c-0.097,1.306,0.2,2.447,0.169,3.702c-0.06,2.294-0.219,1.882-1.772,2.786
					c-1.379,0.79-2.616,0.257-1.654,2.353c0.373,0.828,1.472,1.459,2.477,1.136c-0.335,5.072,2.355,9.616,0.705,15.049
					c-0.424,1.36-3.414,6.227-4.63,7.121c-0.684,0.516-2.658,1.107-3.412,0.975c-1.737-0.328-2.229,1.72-1.261,2.75
					c1.438,1.524,3.736-0.773,4.813-1.757c0.114-0.109,0.255-0.157,0.38-0.247c2.041-2.225,4.964-1.962,5.525,0.138
					c0.505,1.815-0.501,2.562-1.073,4.379c-0.712,2.303,0.247,1.205,1.375,2.172c0.925,0.778,0.505,6.998,3.308,4.207
					c1.026,0.498,1.325,0.825,1.373,2.07c0.063,1.685-0.626,1.661,0.332,2.448c0.501,0.422,1.667,0.033,1.956,0.739
					c0.279,0.636-0.313,0.922-0.272,1.482c0.049,0.724-0.738,2.702,1.288,1.188c0.126,0.471,0.954,1.071,0.977,1.426
					c0.039,0.862-0.62,1.153-0.708,1.817c-0.277,2.082,1.362,0.987,2.349,2.226c-0.722,0.47-0.221,1.867,0.169,1.942
					c1.276,0.246,2.51-1.268,3.085-3.089c-1.265-0.166-3.821-2.468-0.821-2.699c-0.061,1.559,0.992,0.869,2.06,0.956
					c1.875,0.144,1.606-0.326,1.226,1.376c-0.34,1.514-1.128,1.146-0.102,2.286c0.608,0.683,1.883,0.441,1.765,1.722
					c-0.096,1-3.837,4.911-0.176,3.989c1.762-0.413,3.393-4.059,3.219-5.264c-0.13-0.9-1.58-1.284-1.073-2.399
					c0.406-0.9,1.925-1.453,2.746-1.525c0.667,1.74,3.572,0.273,4.872,1.004c0.583,0.317,0.373,1.355,1.249,1.718
					c0.609,0.264,1.772,0.081,2.501,0.069c1.309,0.006,4.281,0.018,4.608,1.404c0.241,0.95-3.535,3.938-0.56,3.771
					c1.387-0.072,3.125-2.596,4.622-3.078c0.471,0.345,3.341,0.675,4.144,0.626c0.907-0.056,3.609-0.768,4.689-1.13
					c-0.026,1.064-0.048,2.82,1.75,2.447c1.431-0.286,1.547-1.999,2.794-2.556c0.97-0.43,0.303-0.211,1.405-0.508
					c1.887-0.477,2.11-1.109,3.635-0.277c1.357,0.74,2.064,0.036,3.084-1.11C212.38,120.979,212.499,119.771,211.916,118.94z
					 M179.847,42.076c-1.592-0.034-2.859-1.559-4.638-0.459c-1.59,0.992-5.069,4.792-5.543,8.341
					c-0.017,0.098-0.09,0.176-0.112,0.109c-0.697-2.316,1.922-6.063,2.872-7.1c1.127-1.215,2.433-2.32,3.547-2.776
					c1.378-0.558,2.75,1.358,3.896,1.742C179.908,41.945,179.88,42.076,179.847,42.076z M167.147,43.876
					c1.108-1.788,1.638-2.584,3.089-4.271c0.743-0.863,1.745-1.948,2.437-2.591c0.496-0.495,1.352-1.243,1.881-1.665
					c0.283-0.235,4.362-3.141,5.53-3.529c0.169-0.063-0.734,0.849-0.881,0.941c-0.924,0.577-1.863,1.181-2.813,1.839
					c-0.308,0.313-1.097,1.026-0.511,1.119c1.15-0.516,1.556-0.757,2.802-1.475c1.47-0.823,3.303-2.603,4.847-3.61
					c2.612-1.697,4.973-1.788,5.466-0.265c0.036,0.111-0.889,1.049-0.954,0.93c-0.056-0.16-0.151-0.287-0.238-0.401
					c-0.154-0.099-0.381-0.081-0.701,0.081c-0.202,1.777,2.23,0.51,3.745-0.005c2.314-0.77,3.295,0.725,4.31,1.739
					c0.06,0.07,3.32,3.469-0.905,0.914c-1.45-0.586-3.175-0.771-5.036-0.775c-0.663,0-4.533-0.023-5.559,0.212
					c-1.951,0.465-4.815,2.742-7.129,4.004c-2.414,1.3-5.339,2.342-8.077,5.541c-0.336,0.459-0.661,0.93-0.971,1.398
					c-0.173,0.251-1.088,1.062-0.866,0.729C166.819,44.434,167.11,43.923,167.147,43.876z M162.361,61.738
					c0.786-2.688,1.327-4.712,1.407-7.257c0.022-0.426,0.032-0.821,0.051-1.232c-0.016-0.379-0.009-0.752,0.02-1.118
					c-0.004-0.963,0.104-1.807,0.383-2.803c0.165-1.021,0.212-1.555,0.607-2.444c0.253-0.548,0.568-0.744,0.64-0.41
					c0.155,0.659,0.334,1.297,0.078,2.169c-0.851,2.876,0.191,2.172-0.277,5.799c-0.172,1.348-0.395,2.32-0.933,3.549
					c-0.35,0.784-0.992,1.884-1.866,3.858C162.313,62.215,162.253,62.1,162.361,61.738z M152.58,68.616
					c0.561-1.474,1.026-1.788,1.708-2.757c0.033-0.04,0.063-0.029,0.08-0.007c0.138,0.234,0.152,0.346,0.17,0.724
					c0.015,0.274-0.123,0.723-0.274,0.98c-1.427,2.441-0.221,5.144-2.421,7.257c-0.21,0.201-0.293,0.045-0.27-0.246
					C151.726,73.031,151.949,70.268,152.58,68.616z"/>
			</g>
			<path fill="#023466" d="M214.523,60.856c3.977,6.133,12.397,25.096-7.186,40.991c-11.308,9.292-25.753,6.351-31.852-0.252
				c-6.769-6.466-5.186-16.602,0.059-18.878c12.215-4.637,18.028-2.16,29.283-5.479c8.762-2.583,10.405-11.922,9.438-16.146
				C213.99,59.893,213.453,59.206,214.523,60.856z"/>
		</g>
		<g>
			<path fill="#76C7EC" d="M139.661,167.112c-2.187-0.873-4.537-1.748-7.05-2.622c-2.515-0.875-5.266-1.652-8.253-2.337
				c-2.99-0.684-6.214-1.243-9.674-1.682c-3.462-0.436-7.233-0.654-11.314-0.654c-9.474,0-17.836,1.216-25.088,3.647
				s-13.354,5.697-18.309,9.799c-4.957,4.098-8.709,8.853-11.259,14.264c-2.552,5.411-3.826,11.123-3.826,17.135
				c0,4.975,0.984,9.374,2.951,13.2s4.773,7.037,8.417,9.632c3.644,2.597,8.017,4.565,13.118,5.903
				c5.1,1.34,10.821,2.009,17.162,2.009c4.007,0,7.761-0.204,11.26-0.615c3.497-0.409,6.812-0.955,9.947-1.641
				c3.132-0.682,6.102-1.461,8.909-2.334c2.805-0.874,5.483-1.804,8.035-2.788l-7.433,25.004
				c-5.394,1.695-11.352,2.993-17.874,3.895c-6.521,0.903-13.865,1.354-22.026,1.354c-10.932,0-20.733-1.217-29.406-3.649
				c-8.673-2.43-15.997-5.888-21.971-10.37c-5.977-4.48-10.549-9.852-13.72-16.109c-3.169-6.259-4.755-13.242-4.755-20.948
				c0-6.176,0.875-12.201,2.625-18.078c1.749-5.873,4.389-11.422,7.925-16.643c3.533-5.218,7.98-10.015,13.335-14.388
				c5.356-4.372,11.659-8.144,18.911-11.313s15.486-5.644,24.706-7.42c9.218-1.775,19.403-2.666,30.554-2.666
				c4.226,0,8.307,0.166,12.243,0.493s7.688,0.751,11.26,1.27c3.569,0.521,6.867,1.095,9.893,1.723
				c3.022,0.63,5.701,1.244,8.035,1.845L139.661,167.112z"/>
			<path fill="#76C7EC" d="M168.039,256.231h-35.636l33.122-117.566h35.636L168.039,256.231z"/>
			<path fill="#76C7EC" d="M330.326,167.112c-2.187-0.873-4.537-1.748-7.052-2.622c-2.514-0.875-5.265-1.652-8.252-2.337
				c-2.99-0.684-6.214-1.243-9.674-1.682c-3.463-0.436-7.235-0.654-11.314-0.654c-9.474,0-17.836,1.216-25.087,3.647
				c-7.253,2.432-13.355,5.697-18.31,9.799c-4.957,4.098-8.709,8.853-11.26,14.264c-2.552,5.411-3.826,11.123-3.826,17.135
				c0,4.975,0.984,9.374,2.952,13.2c1.967,3.826,4.772,7.037,8.417,9.632c3.643,2.597,8.015,4.565,13.118,5.903
				c5.1,1.34,10.822,2.009,17.163,2.009c4.006,0,7.761-0.204,11.258-0.615c3.498-0.409,6.813-0.955,9.948-1.641
				c3.132-0.682,6.103-1.461,8.909-2.334c2.804-0.874,5.483-1.804,8.034-2.788l-7.433,25.004
				c-5.394,1.695-11.351,2.993-17.873,3.895c-6.523,0.903-13.866,1.354-22.026,1.354c-10.932,0-20.734-1.217-29.406-3.649
				c-8.673-2.43-15.997-5.888-21.971-10.37c-5.977-4.48-10.55-9.852-13.72-16.109c-3.169-6.259-4.754-13.242-4.754-20.948
				c0-6.176,0.875-12.201,2.624-18.078c1.749-5.873,4.389-11.422,7.926-16.643c3.533-5.218,7.979-10.015,13.335-14.388
				c5.356-4.372,11.659-8.144,18.911-11.313c7.251-3.17,15.486-5.644,24.706-7.42c9.217-1.775,19.402-2.666,30.552-2.666
				c4.226,0,8.308,0.166,12.244,0.493c3.935,0.327,7.688,0.751,11.259,1.27c3.569,0.521,6.868,1.095,9.893,1.723
				c3.022,0.63,5.701,1.244,8.034,1.845L330.326,167.112z"/>
			<path fill="#76C7EC" d="M461.676,172.113c0,5.796-1.349,11.329-4.046,16.603c-2.695,5.275-6.886,9.907-12.569,13.897
				c-5.686,3.989-12.899,7.173-21.644,9.551c-8.746,2.378-19.204,3.566-31.373,3.566h-21.973l-11.368,40.501h-35.636l33.34-117.566
				h53.784c8.888,0,16.577,0.859,23.063,2.582c6.485,1.721,11.823,4.073,16.015,7.05c4.19,2.98,7.305,6.505,9.347,10.576
				C460.655,162.946,461.676,167.358,461.676,172.113z M424.292,173.918c0-4.536-2.041-8.157-6.122-10.863
				c-4.082-2.705-10.095-4.058-18.037-4.058H386.25l-10.384,36.646h16.179c5.609,0,10.438-0.588,14.482-1.763
				c4.046-1.175,7.379-2.76,10.003-4.756c2.623-1.994,4.572-4.303,5.849-6.928C423.652,179.574,424.292,176.815,424.292,173.918z"/>
		</g>
		<g>
			<path fill="#76C7EC" d="M792.5,168.589c0,4.974-1.203,9.47-3.607,13.485c-2.404,4.018-5.683,7.502-9.838,10.454
				c-4.153,2.951-9.019,5.357-14.593,7.215c-5.576,1.859-11.533,3.116-17.874,3.771v0.328c4.52,1.095,8.381,3.172,11.588,6.231
				c3.206,3.062,5.611,7.133,7.214,12.216l10.933,33.942H738.5l-8.527-30.255c-1.313-4.863-3.607-8.538-6.888-11.025
				c-3.279-2.485-7.761-3.73-13.444-3.73h-6.012l-12.791,45.011h-35.636l33.341-117.566h53.563c9.108,0,16.87,0.808,23.283,2.417
				c6.413,1.613,11.623,3.802,15.633,6.56c4.007,2.761,6.923,5.944,8.744,9.551C791.586,160.8,792.5,164.6,792.5,168.589z
				 M754.896,172.934c0-4.536-1.788-8.076-5.355-10.616c-3.572-2.542-8.964-3.813-16.18-3.813h-14.757l-9.4,32.711h14.319
				c5.393,0,10.057-0.504,13.993-1.516c3.935-1.012,7.176-2.351,9.728-4.019c2.551-1.666,4.464-3.607,5.739-5.819
				C754.258,177.648,754.896,175.34,754.896,172.934z"/>
		</g>
	</g>
</g>
<g id="Calque_2">
</g>
</svg>
